<svg width="600" height="700" viewBox="0 0 600 700" fill="none" xmlns="http://www.w3.org/2000/svg">
<g clip-path="url(#clip0_23_139)">
<path d="M121.383 342.441L114.274 360.47C112.895 363.968 110.78 366.362 108.394 367.126C106.007 367.89 103.546 366.961 101.55 364.544C99.5544 362.127 98.1884 358.42 97.7525 354.238C97.3166 350.056 97.8465 345.741 99.2256 342.244L106.335 324.215L121.383 342.441Z" fill="#6BAD9E"/>
<path d="M106.335 324.215L113.444 306.186C114.126 304.455 114.997 302.976 116.006 301.834C117.015 300.692 118.143 299.909 119.324 299.531C120.506 299.153 121.718 299.186 122.892 299.629C124.067 300.072 125.18 300.916 126.168 302.112C127.156 303.309 128 304.835 128.651 306.603C129.303 308.372 129.749 310.348 129.965 312.418C130.181 314.489 130.162 316.614 129.909 318.672C129.657 320.73 129.175 322.68 128.492 324.412L121.383 342.441L106.335 324.215Z" fill="#11909E"/>
<path d="M88.6908 421.147C87.7369 428.894 85.0659 435.66 81.2656 439.956C77.4653 444.252 72.8468 445.727 68.4262 444.055L75.6193 385.632C80.0399 387.303 83.9005 391.984 86.3519 398.645C88.8032 405.305 89.6446 413.399 88.6908 421.147Z" fill="#6BAD9E"/>
<path d="M75.6193 385.634L68.4262 444.058C66.2373 443.23 64.1629 441.655 62.3214 439.422C60.4799 437.189 58.9073 434.343 57.6935 431.045C56.4797 427.747 55.6484 424.062 55.2471 420.201C54.8459 416.34 54.8824 412.379 55.3547 408.543C55.827 404.706 56.7258 401.071 57.9998 397.843C59.2738 394.616 60.8981 391.86 62.7798 389.733C64.6616 387.606 66.764 386.149 68.967 385.445C71.17 384.742 73.4304 384.806 75.6193 385.634Z" fill="#11909E"/>
<path d="M21.9668 513.283L21.9668 683.95C21.9668 692.365 25.8595 699.188 30.6613 699.188H165.196C169.998 699.188 173.89 692.365 173.89 683.95V513.283C173.89 504.868 169.998 498.046 165.196 498.046H30.6613C25.8595 498.046 21.9668 504.868 21.9668 513.283Z" fill="#17224D"/>
<path d="M40.1622 598.449V598.45C40.1622 600.009 40.8836 601.274 41.7736 601.274H154.084C154.974 601.274 155.696 600.009 155.696 598.45V598.449C155.696 596.889 154.974 595.624 154.084 595.624H41.7736C40.8836 595.624 40.1622 596.889 40.1622 598.449Z" fill="#6BAD9E"/>
<path d="M144.753 631.452V666.686C144.753 671.981 147.202 676.274 150.224 676.274H150.224C153.246 676.274 155.695 671.981 155.695 666.686V631.452C155.695 626.157 153.246 621.864 150.224 621.864H150.224C147.202 621.864 144.753 626.157 144.753 631.452Z" fill="white"/>
<path d="M129.306 621.864H129.306C126.284 621.864 123.835 626.157 123.835 631.452V666.686C123.835 671.981 126.284 676.274 129.306 676.274H129.306C132.328 676.274 134.777 671.981 134.777 666.686V631.452C134.777 626.157 132.328 621.864 129.306 621.864Z" fill="white"/>
<path d="M108.388 621.864H108.388C105.366 621.864 102.917 626.157 102.917 631.452V666.686C102.917 671.981 105.366 676.274 108.388 676.274H108.388C111.41 676.274 113.859 671.981 113.859 666.686V631.452C113.859 626.157 111.41 621.864 108.388 621.864Z" fill="white"/>
<path d="M87.4701 621.864H87.4695C84.4479 621.864 81.9984 626.157 81.9984 631.452V666.686C81.9984 671.981 84.4479 676.274 87.4695 676.274H87.4701C90.4917 676.274 92.9412 671.981 92.9412 666.686V631.452C92.9412 626.157 90.4917 621.864 87.4701 621.864Z" fill="white"/>
<path d="M66.552 621.864H66.5513C63.5297 621.864 61.0803 626.157 61.0803 631.452V666.686C61.0803 671.981 63.5297 676.274 66.5513 676.274H66.552C69.5736 676.274 72.0231 671.981 72.0231 666.686V631.452C72.0231 626.157 69.5736 621.864 66.552 621.864Z" fill="white"/>
<path d="M40.1622 631.452V666.686C40.1622 671.981 42.6117 676.274 45.6333 676.274H45.6339C48.6555 676.274 51.105 671.981 51.105 666.686V631.452C51.105 626.157 48.6555 621.864 45.6339 621.864H45.6333C42.6117 621.864 40.1622 626.157 40.1622 631.452Z" fill="white"/>
<path d="M144.753 530.547V565.781C144.753 571.077 147.202 575.37 150.224 575.37H150.224C153.246 575.37 155.696 571.077 155.696 565.781V530.547C155.696 525.252 153.246 520.959 150.224 520.959H150.224C147.202 520.959 144.753 525.252 144.753 530.547Z" fill="white"/>
<path d="M129.306 520.959H129.306C126.284 520.959 123.835 525.252 123.835 530.547V565.781C123.835 571.077 126.284 575.369 129.306 575.369H129.306C132.328 575.369 134.777 571.077 134.777 565.781V530.547C134.777 525.252 132.328 520.959 129.306 520.959Z" fill="white"/>
<path d="M108.388 520.959H108.388C105.366 520.959 102.917 525.252 102.917 530.547V565.781C102.917 571.077 105.366 575.369 108.388 575.369H108.388C111.41 575.369 113.859 571.077 113.859 565.781V530.547C113.859 525.252 111.41 520.959 108.388 520.959Z" fill="white"/>
<path d="M87.4701 520.959H87.4695C84.4479 520.959 81.9984 525.252 81.9984 530.547V565.781C81.9984 571.077 84.4479 575.369 87.4695 575.369H87.4701C90.4917 575.369 92.9412 571.077 92.9412 565.781V530.547C92.9412 525.252 90.4917 520.959 87.4701 520.959Z" fill="white"/>
<path d="M66.552 520.959H66.5513C63.5297 520.959 61.0803 525.252 61.0803 530.547V565.781C61.0803 571.077 63.5297 575.369 66.5513 575.369H66.552C69.5736 575.369 72.0231 571.077 72.0231 565.781V530.547C72.0231 525.252 69.5736 520.959 66.552 520.959Z" fill="white"/>
<path d="M40.1615 530.547V565.781C40.1615 571.077 42.611 575.37 45.6326 575.37H45.6332C48.6548 575.37 51.1043 571.077 51.1043 565.781V530.547C51.1043 525.252 48.6548 520.959 45.6332 520.959H45.6326C42.611 520.959 40.1615 525.252 40.1615 530.547Z" fill="white"/>
<path d="M232.323 23.2931V41.3358H185.108C180.104 41.3364 175.305 44.8202 171.767 51.0209C168.229 57.2217 166.241 65.6316 166.24 74.4011V666.125C166.241 674.893 168.23 683.302 171.768 689.502C175.306 695.701 180.105 699.184 185.108 699.184H437.17C439.647 699.185 442.1 698.331 444.39 696.67C446.679 695.009 448.759 692.574 450.511 689.504C452.263 686.434 453.652 682.789 454.601 678.777C455.549 674.766 456.037 670.467 456.037 666.125V74.4011C456.037 70.0587 455.549 65.7587 454.601 61.7468C453.653 57.7349 452.263 54.0895 450.511 51.0189C448.759 47.9483 446.679 45.5125 444.39 43.8507C442.101 42.1889 439.647 41.3336 437.17 41.3336H389.954V23.2908C389.954 17.1138 388.554 11.1899 386.062 6.82205C383.569 2.45424 380.189 0.000297194 376.665 0L245.61 0C242.086 0.00118877 238.706 2.45587 236.214 6.8241C233.723 11.1923 232.323 17.1163 232.323 23.2931V23.2931Z" fill="#17224D"/>
<path d="M183.691 83.7855L183.691 656.734C183.691 664.954 187.493 671.618 192.183 671.618H430.093C434.784 671.618 438.586 664.954 438.586 656.734V83.7855C438.586 75.5656 434.784 68.902 430.093 68.902H192.183C187.493 68.902 183.691 75.5656 183.691 83.7855Z" fill="white"/>
<path d="M249.228 42.3388V95.4674C249.228 101.056 251.813 105.587 255.002 105.587L367.275 105.587C370.464 105.587 373.049 101.056 373.049 95.4674V42.3388C373.049 36.7499 370.464 32.2192 367.275 32.2192L255.002 32.2192C251.813 32.2192 249.228 36.7499 249.228 42.3388Z" fill="#11909E"/>
<path d="M240.977 375.143H208.098C204.752 375.137 201.544 372.805 199.179 368.658C196.813 364.512 195.482 358.891 195.478 353.027V295.408C195.481 289.544 196.812 283.922 199.178 279.776C201.544 275.629 204.751 273.297 208.097 273.29H240.976C244.322 273.297 247.53 275.629 249.896 279.775C252.262 283.922 253.593 289.544 253.596 295.408V353.03C253.592 358.893 252.261 364.514 249.895 368.659C247.529 372.805 244.322 375.136 240.977 375.143V375.143Z" stroke="#6BAD9E" stroke-width="6" stroke-miterlimit="10"/>
<path d="M240.977 504.579H208.098C204.752 504.573 201.544 502.241 199.179 498.094C196.813 493.948 195.482 488.327 195.478 482.463V424.845C195.482 418.981 196.812 413.359 199.178 409.213C201.544 405.067 204.751 402.734 208.097 402.727H240.976C244.322 402.734 247.53 405.066 249.896 409.213C252.262 413.359 253.592 418.981 253.596 424.845V482.467C253.592 488.33 252.261 493.95 249.895 498.096C247.529 502.241 244.322 504.572 240.977 504.579V504.579Z" stroke="#6BAD9E" stroke-width="6" stroke-miterlimit="10"/>
<path d="M240.977 634.015H208.098C204.752 634.009 201.544 631.676 199.179 627.53C196.813 623.384 195.482 617.763 195.478 611.899V554.282C195.482 548.418 196.812 542.797 199.178 538.65C201.544 534.504 204.751 532.171 208.097 532.164H240.976C244.322 532.171 247.53 534.503 249.896 538.65C252.262 542.796 253.592 548.418 253.596 554.282V611.904C253.591 617.767 252.26 623.387 249.895 627.532C247.529 631.677 244.322 634.008 240.977 634.015Z" stroke="#6BAD9E" stroke-width="6" stroke-miterlimit="10"/>
<path d="M217.681 346.452C217.271 346.453 216.865 346.3 216.491 346.003C216.117 345.705 215.784 345.271 215.514 344.73L205.756 325.178C205.254 324.172 205 322.856 205.051 321.522C205.102 320.187 205.453 318.943 206.027 318.062C206.602 317.181 207.352 316.737 208.114 316.826C208.875 316.915 209.585 317.531 210.088 318.537L217.993 334.378L239.307 303.152C239.597 302.721 239.932 302.395 240.294 302.192C240.655 301.989 241.036 301.914 241.415 301.971C241.793 302.027 242.162 302.215 242.498 302.522C242.835 302.829 243.134 303.25 243.378 303.761C243.621 304.272 243.805 304.862 243.918 305.497C244.03 306.133 244.07 306.801 244.035 307.464C244 308.127 243.89 308.771 243.712 309.359C243.534 309.947 243.291 310.467 242.998 310.89L219.526 345.278C219.009 346.037 218.356 346.453 217.681 346.452V346.452Z" fill="#FD5D76"/>
<path d="M217.682 475.889C217.271 475.89 216.865 475.737 216.491 475.439C216.117 475.142 215.784 474.708 215.514 474.165L205.756 454.614C205.254 453.608 205 452.292 205.051 450.958C205.102 449.623 205.453 448.379 206.027 447.498C206.602 446.617 207.352 446.173 208.114 446.262C208.875 446.351 209.585 446.967 210.088 447.973L217.993 463.814L239.307 432.588C239.595 432.139 239.931 431.796 240.296 431.58C240.661 431.363 241.047 431.277 241.431 431.327C241.815 431.376 242.19 431.561 242.533 431.869C242.875 432.177 243.179 432.603 243.426 433.12C243.674 433.638 243.859 434.238 243.971 434.883C244.084 435.529 244.121 436.208 244.081 436.879C244.041 437.55 243.925 438.201 243.739 438.792C243.553 439.383 243.301 439.903 242.998 440.32L219.526 474.715C219.009 475.474 218.356 475.89 217.682 475.889V475.889Z" fill="#FD5D76"/>
<path d="M217.682 605.325C217.271 605.326 216.865 605.172 216.491 604.875C216.117 604.578 215.784 604.143 215.514 603.601L205.756 584.05C205.254 583.044 205 581.728 205.051 580.394C205.102 579.059 205.453 577.815 206.027 576.934C206.602 576.053 207.352 575.609 208.114 575.698C208.875 575.787 209.585 576.402 210.088 577.409L217.993 593.25L239.307 562.023C239.597 561.593 239.932 561.266 240.294 561.064C240.655 560.861 241.036 560.786 241.415 560.842C241.793 560.899 242.162 561.087 242.498 561.394C242.835 561.701 243.134 562.122 243.378 562.633C243.621 563.144 243.805 563.734 243.918 564.369C244.03 565.005 244.07 565.673 244.035 566.336C244 566.999 243.89 567.642 243.712 568.23C243.534 568.818 243.291 569.339 242.998 569.762L219.526 604.152C219.009 604.91 218.356 605.326 217.682 605.325V605.325Z" fill="#FD5D76"/>
<g opacity="0.62">
<path d="M271.382 317.498C269.266 317.498 267.549 320.506 267.549 324.215C267.549 327.925 269.266 330.932 271.382 330.932H415.3C417.417 330.932 419.133 327.925 419.133 324.215C419.133 320.506 417.417 317.498 415.3 317.498H271.382Z" fill="#6BAD9E"/>
<path d="M271.382 276.323C269.266 276.323 267.549 279.33 267.549 283.04C267.549 286.749 269.266 289.756 271.382 289.756H415.3C417.417 289.756 419.133 286.749 419.133 283.04C419.133 279.33 417.417 276.323 415.3 276.323H271.382Z" fill="#6BAD9E"/>
<path d="M271.383 358.673C269.266 358.673 267.55 361.68 267.55 365.39C267.55 369.099 269.266 372.106 271.383 372.106H383.328C385.445 372.106 387.161 369.099 387.161 365.39C387.161 361.68 385.445 358.673 383.328 358.673H271.383Z" fill="#6BAD9E"/>
</g>
<g opacity="0.62">
<path d="M271.382 446.934C269.266 446.934 267.549 449.942 267.549 453.651C267.549 457.361 269.266 460.368 271.382 460.368H415.3C417.417 460.368 419.133 457.361 419.133 453.651C419.133 449.942 417.417 446.934 415.3 446.934H271.382Z" fill="#6BAD9E"/>
<path d="M271.382 405.759C269.266 405.759 267.549 408.766 267.549 412.476C267.549 416.185 269.266 419.192 271.382 419.192H415.3C417.417 419.192 419.133 416.185 419.133 412.476C419.133 408.766 417.417 405.759 415.3 405.759H271.382Z" fill="#6BAD9E"/>
<path d="M271.383 488.109C269.266 488.109 267.55 491.116 267.55 494.825C267.55 498.535 269.266 501.542 271.383 501.542H383.328C385.445 501.542 387.161 498.535 387.161 494.825C387.161 491.116 385.445 488.109 383.328 488.109H271.383Z" fill="#6BAD9E"/>
</g>
<g opacity="0.62">
<path d="M271.382 576.37C269.266 576.37 267.549 579.377 267.549 583.087C267.549 586.797 269.266 589.804 271.382 589.804H415.3C417.417 589.804 419.133 586.797 419.133 583.087C419.133 579.377 417.417 576.37 415.3 576.37H271.382Z" fill="#6BAD9E"/>
<path d="M271.382 535.195C269.266 535.195 267.549 538.202 267.549 541.911C267.549 545.621 269.266 548.628 271.382 548.628H415.3C417.417 548.628 419.133 545.621 419.133 541.911C419.133 538.202 417.417 535.195 415.3 535.195H271.382Z" fill="#6BAD9E"/>
<path d="M271.383 617.545C269.266 617.545 267.55 620.552 267.55 624.261C267.55 627.971 269.266 630.978 271.383 630.978H383.328C385.445 630.978 387.161 627.971 387.161 624.261C387.161 620.552 385.445 617.545 383.328 617.545H271.383Z" fill="#6BAD9E"/>
</g>
<path d="M205.045 405.794V432.196H120.194V405.794C120.194 402.547 120.93 399.434 122.24 397.139C123.55 394.843 125.326 393.554 127.178 393.554H198.06C198.977 393.553 199.885 393.87 200.733 394.485C201.58 395.1 202.35 396.002 202.999 397.138C203.647 398.275 204.162 399.624 204.513 401.109C204.864 402.594 205.045 404.186 205.045 405.794V405.794Z" fill="#17224D"/>
<path d="M205.045 432.2V685.27C205.044 688.961 204.208 692.501 202.718 695.111C201.229 697.721 199.209 699.188 197.103 699.188H128.136C126.029 699.188 124.009 697.721 122.52 695.111C121.031 692.501 120.194 688.961 120.194 685.27V432.2H205.045Z" fill="#11909E"/>
<path d="M190.866 497.191H134.373V641.223H190.866V497.191Z" fill="white"/>
<path d="M180.151 542.565H145.09C144.641 542.55 144.214 542.227 143.9 541.666C143.586 541.105 143.41 540.351 143.41 539.565C143.41 538.779 143.586 538.024 143.9 537.463C144.214 536.902 144.641 536.579 145.09 536.564H180.154C180.381 536.556 180.607 536.628 180.819 536.776C181.031 536.923 181.223 537.143 181.386 537.422C181.548 537.702 181.677 538.035 181.766 538.403C181.854 538.771 181.899 539.166 181.899 539.565C181.899 539.964 181.854 540.359 181.766 540.727C181.677 541.095 181.548 541.428 181.386 541.707C181.223 541.987 181.031 542.206 180.819 542.354C180.607 542.501 180.381 542.573 180.154 542.565H180.151Z" fill="#17224D"/>
<path d="M180.151 562.327H145.09C144.641 562.312 144.214 561.989 143.9 561.428C143.586 560.867 143.41 560.113 143.41 559.327C143.41 558.541 143.586 557.786 143.9 557.225C144.214 556.664 144.641 556.341 145.09 556.326H180.154C180.381 556.318 180.607 556.39 180.819 556.538C181.031 556.685 181.223 556.905 181.386 557.184C181.548 557.463 181.677 557.797 181.766 558.165C181.854 558.533 181.899 558.928 181.899 559.327C181.899 559.726 181.854 560.121 181.766 560.489C181.677 560.856 181.548 561.19 181.386 561.469C181.223 561.749 181.031 561.968 180.819 562.116C180.607 562.263 180.381 562.335 180.154 562.327H180.151Z" fill="#17224D"/>
<path d="M180.151 582.088H145.09C144.636 582.088 144.2 581.772 143.879 581.209C143.558 580.646 143.377 579.883 143.377 579.087C143.377 578.291 143.558 577.527 143.879 576.965C144.2 576.402 144.636 576.086 145.09 576.086H180.154C180.608 576.086 181.043 576.402 181.364 576.965C181.686 577.527 181.866 578.291 181.866 579.087C181.866 579.883 181.686 580.646 181.364 581.209C181.043 581.772 180.608 582.088 180.154 582.088H180.151Z" fill="#17224D"/>
<path d="M172.889 601.85H152.349C151.895 601.85 151.46 601.534 151.138 600.971C150.817 600.408 150.637 599.645 150.637 598.849C150.637 598.053 150.817 597.289 151.138 596.726C151.46 596.164 151.895 595.847 152.349 595.847H172.889C173.343 595.847 173.779 596.164 174.1 596.726C174.421 597.289 174.601 598.053 174.601 598.849C174.601 599.645 174.421 600.408 174.1 600.971C173.779 601.534 173.343 601.85 172.889 601.85V601.85Z" fill="#17224D"/>
<path d="M217.374 181.188C226.782 181.188 234.408 167.822 234.408 151.334C234.408 134.846 226.782 121.479 217.374 121.479C207.966 121.479 200.339 134.846 200.339 151.334C200.339 167.822 207.966 181.188 217.374 181.188Z" stroke="#6BAD9E" stroke-width="6" stroke-miterlimit="10"/>
<path d="M229.771 147.263V155.403H219.695V173.06H215.051V155.403H204.976V147.263H215.051V129.606H219.695V147.263H229.771Z" fill="#FD5D76"/>
<path d="M436.954 393.557H557.489C559.767 393.557 561.95 395.142 563.561 397.965C565.171 400.787 566.076 404.614 566.076 408.605V501.323H428.368V408.605C428.368 404.614 429.272 400.787 430.883 397.965C432.493 395.142 434.677 393.557 436.954 393.557V393.557Z" fill="#6BAD9E"/>
<path d="M549.182 414.845H445.263C443.83 414.845 442.668 416.881 442.668 419.393V467.939C442.668 470.451 443.83 472.487 445.263 472.487H549.182C550.615 472.487 551.777 470.451 551.777 467.939V419.393C551.777 416.881 550.615 414.845 549.182 414.845Z" fill="white"/>
<path d="M428.368 491.764H566.077V684.952C566.077 688.943 565.172 692.77 563.562 695.592C561.952 698.415 559.768 700 557.49 700H436.955C435.828 700 434.711 699.611 433.669 698.855C432.627 698.099 431.681 696.991 430.883 695.593C430.086 694.196 429.453 692.537 429.021 690.711C428.59 688.885 428.368 686.928 428.368 684.952V491.764Z" fill="#6BAD9E"/>
<path d="M519.704 508.193H501.517C499.905 508.193 498.598 510.483 498.598 513.308V531.649C498.598 534.474 499.905 536.764 501.517 536.764H519.704C521.316 536.764 522.622 534.474 522.622 531.649V513.308C522.622 510.483 521.316 508.193 519.704 508.193Z" fill="white"/>
<path d="M519.704 543.597H501.517C499.905 543.597 498.598 545.887 498.598 548.712V567.053C498.598 569.878 499.905 572.168 501.517 572.168H519.704C521.316 572.168 522.622 569.878 522.622 567.053V548.712C522.622 545.887 521.316 543.597 519.704 543.597Z" fill="white"/>
<path d="M519.704 579.003H501.517C499.905 579.003 498.598 581.293 498.598 584.117V602.458C498.598 605.283 499.905 607.573 501.517 607.573H519.704C521.316 607.573 522.622 605.283 522.622 602.458V584.117C522.622 581.293 521.316 579.003 519.704 579.003Z" fill="white"/>
<path d="M519.704 614.407H501.517C499.905 614.407 498.598 616.697 498.598 619.522V637.862C498.598 640.687 499.905 642.977 501.517 642.977H519.704C521.316 642.977 522.622 640.687 522.622 637.862V619.522C522.622 616.697 521.316 614.407 519.704 614.407Z" fill="white"/>
<path d="M519.704 649.812H501.517C499.905 649.812 498.598 652.102 498.598 654.927V673.268C498.598 676.092 499.905 678.382 501.517 678.382H519.704C521.316 678.382 522.622 676.092 522.622 673.268V654.927C522.622 652.102 521.316 649.812 519.704 649.812Z" fill="white"/>
<path d="M491.473 508.193H473.286C471.674 508.193 470.368 510.483 470.368 513.308V531.649C470.368 534.474 471.674 536.764 473.286 536.764H491.473C493.085 536.764 494.391 534.474 494.391 531.649V513.308C494.391 510.483 493.085 508.193 491.473 508.193Z" fill="#6BAD9E"/>
<path d="M491.473 543.597H473.286C471.674 543.597 470.368 545.887 470.368 548.712V567.053C470.368 569.878 471.674 572.168 473.286 572.168H491.473C493.085 572.168 494.391 569.878 494.391 567.053V548.712C494.391 545.887 493.085 543.597 491.473 543.597Z" fill="white"/>
<path d="M491.473 579.003H473.286C471.674 579.003 470.368 581.293 470.368 584.117V602.458C470.368 605.283 471.674 607.573 473.286 607.573H491.473C493.085 607.573 494.391 605.283 494.391 602.458V584.117C494.391 581.293 493.085 579.003 491.473 579.003Z" fill="white"/>
<path d="M491.473 614.407H473.286C471.674 614.407 470.368 616.697 470.368 619.522V637.862C470.368 640.687 471.674 642.977 473.286 642.977H491.473C493.085 642.977 494.391 640.687 494.391 637.862V619.522C494.391 616.697 493.085 614.407 491.473 614.407Z" fill="white"/>
<path d="M491.473 649.812H473.286C471.674 649.812 470.368 652.102 470.368 654.927V673.268C470.368 676.092 471.674 678.382 473.286 678.382H491.473C493.085 678.382 494.391 676.092 494.391 673.268V654.927C494.391 652.102 493.085 649.812 491.473 649.812Z" fill="white"/>
<path d="M463.242 508.193H445.055C443.443 508.193 442.137 510.483 442.137 513.308V531.649C442.137 534.474 443.443 536.764 445.055 536.764H463.242C464.854 536.764 466.161 534.474 466.161 531.649V513.308C466.161 510.483 464.854 508.193 463.242 508.193Z" fill="#FD5D76"/>
<path d="M463.242 543.597H445.055C443.443 543.597 442.137 545.887 442.137 548.712V567.053C442.137 569.878 443.443 572.168 445.055 572.168H463.242C464.854 572.168 466.161 569.878 466.161 567.053V548.712C466.161 545.887 464.854 543.597 463.242 543.597Z" fill="white"/>
<path d="M463.242 579.003H445.055C443.443 579.003 442.137 581.293 442.137 584.117V602.458C442.137 605.283 443.443 607.573 445.055 607.573H463.242C464.854 607.573 466.161 605.283 466.161 602.458V584.117C466.161 581.293 464.854 579.003 463.242 579.003Z" fill="white"/>
<path d="M463.242 614.407H445.055C443.443 614.407 442.137 616.697 442.137 619.522V637.862C442.137 640.687 443.443 642.977 445.055 642.977H463.242C464.854 642.977 466.161 640.687 466.161 637.862V619.522C466.161 616.697 464.854 614.407 463.242 614.407Z" fill="white"/>
<path d="M463.242 649.812H445.055C443.443 649.812 442.137 652.102 442.137 654.927V673.268C442.137 676.092 443.443 678.382 445.055 678.382H463.242C464.854 678.382 466.161 676.092 466.161 673.268V654.927C466.161 652.102 464.854 649.812 463.242 649.812Z" fill="white"/>
<path d="M547.935 508.193H529.748C528.136 508.193 526.829 510.483 526.829 513.308V531.649C526.829 534.474 528.136 536.764 529.748 536.764H547.935C549.546 536.764 550.853 534.474 550.853 531.649V513.308C550.853 510.483 549.546 508.193 547.935 508.193Z" fill="white"/>
<path d="M547.935 543.597H529.748C528.136 543.597 526.829 545.887 526.829 548.712V567.053C526.829 569.878 528.136 572.168 529.748 572.168H547.935C549.546 572.168 550.853 569.878 550.853 567.053V548.712C550.853 545.887 549.546 543.597 547.935 543.597Z" fill="white"/>
<path d="M547.935 579.003H529.748C528.136 579.003 526.829 581.293 526.829 584.117V602.458C526.829 605.283 528.136 607.573 529.748 607.573H547.935C549.546 607.573 550.853 605.283 550.853 602.458V584.117C550.853 581.293 549.546 579.003 547.935 579.003Z" fill="white"/>
<path d="M547.935 614.407H529.748C528.136 614.407 526.829 616.697 526.829 619.522V673.268C526.829 676.092 528.136 678.382 529.748 678.382H547.935C549.546 678.382 550.853 676.092 550.853 673.268V619.522C550.853 616.697 549.546 614.407 547.935 614.407Z" fill="#11909E"/>
<path d="M417.596 137.185C407.713 137.214 398.096 131.591 390.202 121.171C382.309 131.592 372.692 137.214 362.81 137.185C361.999 137.185 361.187 137.151 360.386 137.073V167.183C360.396 194.249 366.542 219.182 380.035 232.348L390.202 242.239L400.369 232.348C413.861 219.186 420.008 194.245 420.018 167.183V137.072C419.219 137.151 418.406 137.185 417.596 137.185Z" fill="white"/>
<path d="M417.596 134.569C408.035 134.622 398.728 129.182 391.1 119.081L390.205 117.896L389.31 119.081C381.682 129.182 372.375 134.622 362.814 134.569C361.999 134.569 361.211 134.532 360.475 134.457L358.898 134.302V167.18C358.909 197.4 366.351 221.981 379.315 234.631L390.208 245.228L401.102 234.63C414.065 221.984 421.506 197.4 421.517 167.179V134.305L419.941 134.46C419.199 134.532 418.412 134.569 417.596 134.569ZM418.526 167.18C418.516 195.445 411.633 218.364 399.646 230.058L390.202 239.248L380.761 230.058C368.772 218.362 361.89 195.443 361.879 167.18V139.786C362.185 139.796 362.495 139.802 362.809 139.802C372.637 139.857 382.224 134.473 390.202 124.418C398.182 134.472 407.768 139.856 417.596 139.802C417.91 139.802 418.22 139.797 418.526 139.786V167.18Z" fill="#11909E"/>
<path d="M390.202 247.107L378.855 236.067C365.583 223.123 357.966 198.013 357.954 167.18V132.566L360.522 132.817C361.241 132.888 362.01 132.929 362.809 132.929C372.166 132.981 381.275 127.657 388.741 117.771L390.202 115.842L391.665 117.771C399.13 127.657 408.239 132.981 417.596 132.929C418.396 132.929 419.165 132.892 419.883 132.817L422.451 132.566V167.182C422.439 198.017 414.822 223.126 401.553 236.07L390.202 247.107ZM359.829 136.04V167.179C359.839 196.784 367.106 220.844 379.764 233.193L390.2 243.345L400.638 233.191C413.295 220.844 420.56 196.784 420.572 167.177V136.049L419.986 136.106C419.233 136.18 418.428 136.218 417.593 136.218C407.829 136.272 398.324 130.715 390.534 120.399L390.2 119.96L389.866 120.399C382.076 130.716 372.571 136.273 362.807 136.218C361.972 136.218 361.167 136.18 360.414 136.106L359.829 136.04ZM390.202 241.122L380.306 231.494C368.01 219.503 360.952 196.057 360.94 167.179V138.109L361.896 138.138C362.196 138.148 362.501 138.152 362.809 138.152C372.44 138.199 381.834 132.924 389.656 123.077L390.202 122.389L390.75 123.077C398.571 132.924 407.965 138.199 417.596 138.152C417.904 138.152 418.208 138.148 418.509 138.138L419.465 138.109V167.181C419.454 196.061 412.396 219.503 400.102 231.496L390.202 241.122ZM362.82 141.446V167.182C362.831 194.831 369.534 217.226 381.221 228.623L390.206 237.364L399.194 228.623C410.874 217.228 417.58 194.832 417.591 167.181V141.446C407.799 141.49 398.237 136.247 390.206 126.429C382.174 136.247 372.612 141.49 362.82 141.446Z" fill="#11909E"/>
<path d="M384.109 205.924C383.784 205.924 383.462 205.813 383.162 205.594C382.862 205.376 382.589 205.056 382.36 204.653L372.819 187.936C372.366 187.119 372.115 186.022 372.12 184.883C372.125 183.745 372.385 182.655 372.845 181.849C373.304 181.044 373.926 180.588 374.576 180.58C375.226 180.571 375.851 181.011 376.318 181.805L384.109 195.46L404.087 158.757C404.554 157.964 405.179 157.524 405.829 157.532C406.479 157.54 407.101 157.997 407.56 158.802C408.02 159.607 408.28 160.697 408.285 161.836C408.29 162.975 408.038 164.071 407.586 164.888L385.857 204.655C385.628 205.058 385.355 205.378 385.055 205.595C384.755 205.813 384.433 205.925 384.109 205.924V205.924Z" fill="#17224D"/>
<path d="M305.262 202.724H202.168C200.506 202.724 199.158 205.086 199.158 208C199.158 210.914 200.506 213.276 202.168 213.276H305.262C306.925 213.276 308.272 210.914 308.272 208C308.272 205.086 306.925 202.724 305.262 202.724Z" fill="#6BAD9E"/>
<path d="M305.262 232.026H202.168C200.506 232.026 199.158 234.389 199.158 237.302C199.158 240.216 200.506 242.579 202.168 242.579H305.262C306.925 242.579 308.272 240.216 308.272 237.302C308.272 234.389 306.925 232.026 305.262 232.026Z" fill="#6BAD9E"/>
<path d="M81.6122 261.576L85.6266 275.936C86.3999 278.721 86.5115 281.929 85.937 284.858C85.3625 287.786 84.1488 290.196 82.562 291.558C80.9753 292.921 79.1449 293.125 77.4724 292.126C75.8 291.127 74.4218 289.006 73.6402 286.228L69.6258 271.874L81.6122 261.576Z" fill="#6BAD9E"/>
<path d="M69.6258 271.874L65.6114 257.514C65.223 256.134 64.9939 254.633 64.937 253.098C64.8801 251.562 64.9966 250.023 65.2799 248.566C65.5631 247.11 66.0075 245.766 66.5876 244.611C67.1677 243.456 67.8721 242.513 68.6605 241.836C69.4489 241.16 70.3057 240.762 71.1819 240.666C72.0581 240.571 72.9365 240.779 73.7667 241.279C74.5969 241.779 75.3626 242.562 76.02 243.581C76.6774 244.601 77.2135 245.838 77.5977 247.221L81.6122 261.582L69.6258 271.874Z" fill="#17224D"/>
</g>
<defs>
<clipPath id="clip0_23_139">
<rect width="600" height="700" fill="white"/>
</clipPath>
</defs>
</svg>
