<?xml version="1.0" standalone="no"?>
<!DOCTYPE svg PUBLIC "-//W3C//DTD SVG 20010904//EN"
 "http://www.w3.org/TR/2001/REC-SVG-20010904/DTD/svg10.dtd">
<svg version="1.0" xmlns="http://www.w3.org/2000/svg"
 width="400.000000pt" height="400.000000pt" viewBox="0 0 400.000000 400.000000"
 preserveAspectRatio="xMidYMid meet">
<metadata>
Created by potrace 1.14, written by Peter Selinger 2001-2017
</metadata>
<g transform="translate(0.000000,400.000000) scale(0.100000,-0.100000)"
fill="#000000" stroke="none">
<path d="M1689 3601 c-132 -42 -237 -145 -288 -283 l-11 -28 -142 0 c-79 0
-163 -5 -187 -11 -160 -37 -303 -180 -340 -340 -14 -60 -14 -2148 0 -2208 29
-129 125 -248 247 -308 l76 -38 955 0 956 0 75 37 c121 59 212 168 244 293 14
52 16 193 16 1120 0 864 -3 1069 -14 1111 -34 128 -125 241 -238 296 -81 40
-127 47 -285 48 l-141 0 -31 67 c-58 123 -143 200 -269 242 -56 19 -84 21
-314 20 -215 0 -261 -3 -309 -18z m523 -232 c74 -16 141 -82 156 -154 19 -89
-12 -167 -87 -220 l-43 -30 -238 0 -238 0 -43 30 c-75 52 -106 131 -87 219 15
69 76 133 143 151 63 17 363 19 437 4z m-789 -402 c59 -118 168 -209 292 -241
70 -19 480 -22 554 -5 128 29 248 125 307 245 l37 74 136 0 c122 -1 141 -3
181 -24 26 -13 58 -41 75 -65 l30 -43 0 -1073 0 -1073 -30 -44 c-17 -23 -51
-54 -75 -68 l-45 -25 -885 0 -885 0 -45 25 c-24 14 -58 45 -75 68 l-30 44 -3
1056 c-2 1117 -4 1083 44 1148 44 60 92 74 245 74 l136 0 36 -73z"/>
<path d="M1918 2091 l-33 -29 -5 -134 -5 -133 -133 -5 -134 -5 -28 -32 c-39
-44 -47 -92 -24 -140 30 -60 67 -73 207 -73 l117 0 0 -120 c0 -135 10 -169 60
-195 57 -29 130 -12 164 39 13 20 16 51 16 151 l0 125 118 0 c139 0 176 13
206 73 23 48 15 96 -24 140 l-28 32 -134 5 -133 5 -5 133 -5 134 -33 29 c-26
24 -41 29 -82 29 -41 0 -56 -5 -82 -29z"/>
</g>
</svg>
